<?xml version="1.0" encoding="UTF-8"?>
<svg xmlns="http://www.w3.org/2000/svg" version="1.1" width="100" height="100" viewBox="0 0 100 100"><rect x="0" y="0" width="100" height="100" fill="#ffffff"/><g transform="scale(3.448)"><g transform="translate(0,0)"><path fill-rule="evenodd" d="M9 0L9 1L8 1L8 2L9 2L9 3L8 3L8 4L10 4L10 7L11 7L11 4L12 4L12 5L13 5L13 4L12 4L12 2L13 2L13 1L14 1L14 0L13 0L13 1L11 1L11 2L10 2L10 0ZM15 0L15 2L14 2L14 4L16 4L16 1L17 1L17 0ZM18 0L18 1L19 1L19 0ZM20 0L20 2L21 2L21 0ZM18 2L18 3L17 3L17 5L14 5L14 7L15 7L15 9L14 9L14 8L13 8L13 6L12 6L12 9L13 9L13 10L11 10L11 11L10 11L10 9L11 9L11 8L6 8L6 9L7 9L7 10L5 10L5 8L0 8L0 9L1 9L1 10L0 10L0 11L1 11L1 10L4 10L4 11L2 11L2 12L0 12L0 13L1 13L1 14L0 14L0 15L1 15L1 14L3 14L3 13L4 13L4 17L3 17L3 18L2 18L2 16L3 16L3 15L2 15L2 16L0 16L0 21L1 21L1 18L2 18L2 19L3 19L3 20L2 20L2 21L5 21L5 18L6 18L6 19L7 19L7 20L6 20L6 21L7 21L7 20L9 20L9 21L8 21L8 23L9 23L9 24L8 24L8 29L12 29L12 27L13 27L13 26L11 26L11 23L9 23L9 22L11 22L11 21L12 21L12 22L13 22L13 23L12 23L12 25L13 25L13 24L14 24L14 25L15 25L15 24L16 24L16 22L17 22L17 21L18 21L18 24L20 24L20 25L19 25L19 27L18 27L18 26L17 26L17 25L16 25L16 26L15 26L15 27L14 27L14 28L15 28L15 29L16 29L16 28L17 28L17 29L18 29L18 28L19 28L19 29L20 29L20 25L21 25L21 29L22 29L22 27L24 27L24 29L25 29L25 27L26 27L26 25L27 25L27 28L26 28L26 29L27 29L27 28L28 28L28 26L29 26L29 24L26 24L26 23L25 23L25 22L26 22L26 21L27 21L27 20L29 20L29 19L27 19L27 20L26 20L26 19L25 19L25 18L26 18L26 17L27 17L27 18L29 18L29 16L26 16L26 13L27 13L27 14L29 14L29 13L27 13L27 12L26 12L26 11L27 11L27 10L29 10L29 9L28 9L28 8L27 8L27 9L26 9L26 8L25 8L25 9L24 9L24 8L23 8L23 9L22 9L22 8L21 8L21 12L20 12L20 11L19 11L19 10L20 10L20 9L19 9L19 5L18 5L18 4L20 4L20 5L21 5L21 4L20 4L20 3L19 3L19 2ZM10 3L10 4L11 4L11 3ZM8 5L8 7L9 7L9 5ZM15 6L15 7L16 7L16 6ZM17 6L17 8L16 8L16 9L15 9L15 10L14 10L14 11L12 11L12 13L11 13L11 12L10 12L10 13L9 13L9 14L8 14L8 15L5 15L5 17L6 17L6 18L8 18L8 19L9 19L9 18L10 18L10 17L9 17L9 16L8 16L8 15L10 15L10 13L11 13L11 18L14 18L14 19L12 19L12 21L14 21L14 22L16 22L16 21L17 21L17 20L18 20L18 19L20 19L20 20L19 20L19 21L20 21L20 20L21 20L21 19L22 19L22 20L25 20L25 19L22 19L22 18L21 18L21 19L20 19L20 18L17 18L17 19L16 19L16 20L15 20L15 18L16 18L16 17L17 17L17 16L19 16L19 17L21 17L21 16L22 16L22 17L24 17L24 16L23 16L23 15L24 15L24 13L26 13L26 12L25 12L25 11L26 11L26 10L24 10L24 9L23 9L23 10L22 10L22 13L21 13L21 14L22 14L22 15L21 15L21 16L20 16L20 14L19 14L19 13L20 13L20 12L19 12L19 13L17 13L17 12L18 12L18 9L17 9L17 8L18 8L18 6ZM20 6L20 7L21 7L21 6ZM16 9L16 10L15 10L15 12L17 12L17 11L16 11L16 10L17 10L17 9ZM7 10L7 11L6 11L6 12L5 12L5 14L7 14L7 13L8 13L8 10ZM28 11L28 12L29 12L29 11ZM2 12L2 13L3 13L3 12ZM6 12L6 13L7 13L7 12ZM13 12L13 13L12 13L12 14L13 14L13 13L14 13L14 12ZM23 12L23 13L22 13L22 14L23 14L23 13L24 13L24 12ZM16 13L16 14L15 14L15 15L17 15L17 13ZM18 14L18 15L19 15L19 14ZM12 15L12 17L14 17L14 18L15 18L15 17L16 17L16 16L15 16L15 17L14 17L14 16L13 16L13 15ZM6 16L6 17L7 17L7 16ZM21 21L21 24L24 24L24 21ZM22 22L22 23L23 23L23 22ZM14 23L14 24L15 24L15 23ZM25 24L25 25L26 25L26 24ZM22 25L22 26L24 26L24 25ZM9 26L9 27L10 27L10 28L11 28L11 27L10 27L10 26ZM17 27L17 28L18 28L18 27ZM0 0L0 7L7 7L7 0ZM1 1L1 6L6 6L6 1ZM2 2L2 5L5 5L5 2ZM22 0L22 7L29 7L29 0ZM23 1L23 6L28 6L28 1ZM24 2L24 5L27 5L27 2ZM0 22L0 29L7 29L7 22ZM1 23L1 28L6 28L6 23ZM2 24L2 27L5 27L5 24Z" fill="#000000"/></g></g></svg>
