<?xml version="1.0" encoding="UTF-8"?>
<svg xmlns="http://www.w3.org/2000/svg" version="1.1" width="100" height="100" viewBox="0 0 100 100"><rect x="0" y="0" width="100" height="100" fill="#ffffff"/><g transform="scale(3.448)"><g transform="translate(0,0)"><path fill-rule="evenodd" d="M8 0L8 1L10 1L10 0ZM13 0L13 1L14 1L14 2L11 2L11 4L10 4L10 3L9 3L9 2L8 2L8 5L9 5L9 6L8 6L8 7L9 7L9 8L8 8L8 9L7 9L7 8L6 8L6 9L5 9L5 10L4 10L4 8L0 8L0 10L1 10L1 11L2 11L2 13L1 13L1 12L0 12L0 13L1 13L1 14L4 14L4 15L0 15L0 16L1 16L1 18L0 18L0 19L1 19L1 18L2 18L2 16L3 16L3 17L4 17L4 19L2 19L2 20L1 20L1 21L2 21L2 20L4 20L4 21L7 21L7 20L5 20L5 19L8 19L8 20L10 20L10 21L8 21L8 22L10 22L10 23L9 23L9 25L8 25L8 29L9 29L9 28L10 28L10 29L11 29L11 28L12 28L12 29L13 29L13 28L12 28L12 26L13 26L13 27L14 27L14 29L15 29L15 28L17 28L17 27L18 27L18 29L21 29L21 28L22 28L22 27L21 27L21 28L20 28L20 27L19 27L19 26L21 26L21 25L23 25L23 27L24 27L24 28L23 28L23 29L24 29L24 28L25 28L25 27L24 27L24 25L25 25L25 26L27 26L27 25L28 25L28 27L27 27L27 29L28 29L28 27L29 27L29 23L28 23L28 22L26 22L26 21L29 21L29 19L28 19L28 20L27 20L27 19L25 19L25 18L24 18L24 16L25 16L25 17L26 17L26 15L23 15L23 14L24 14L24 12L25 12L25 10L27 10L27 12L26 12L26 13L25 13L25 14L27 14L27 15L29 15L29 13L28 13L28 14L27 14L27 12L28 12L28 10L29 10L29 8L28 8L28 9L27 9L27 8L24 8L24 10L23 10L23 9L22 9L22 8L21 8L21 6L20 6L20 5L19 5L19 4L20 4L20 2L19 2L19 0L18 0L18 1L17 1L17 0L15 0L15 1L14 1L14 0ZM20 0L20 1L21 1L21 0ZM15 1L15 3L16 3L16 5L15 5L15 8L14 8L14 6L13 6L13 7L12 7L12 5L14 5L14 3L12 3L12 5L10 5L10 6L9 6L9 7L10 7L10 8L9 8L9 9L8 9L8 11L6 11L6 12L5 12L5 13L4 13L4 14L5 14L5 15L6 15L6 16L5 16L5 17L6 17L6 18L7 18L7 17L8 17L8 18L9 18L9 19L10 19L10 20L12 20L12 19L10 19L10 18L12 18L12 17L13 17L13 16L15 16L15 17L16 17L16 18L17 18L17 19L15 19L15 18L13 18L13 20L14 20L14 23L10 23L10 24L11 24L11 25L10 25L10 26L11 26L11 25L12 25L12 24L13 24L13 26L14 26L14 27L17 27L17 26L14 26L14 24L15 24L15 25L20 25L20 23L19 23L19 22L18 22L18 21L19 21L19 19L20 19L20 15L19 15L19 14L14 14L14 13L17 13L17 12L19 12L19 13L20 13L20 14L21 14L21 20L23 20L23 19L22 19L22 18L23 18L23 15L22 15L22 14L21 14L21 13L20 13L20 12L22 12L22 13L23 13L23 12L24 12L24 11L23 11L23 10L21 10L21 8L20 8L20 6L19 6L19 5L18 5L18 4L17 4L17 3L19 3L19 2L17 2L17 1ZM16 2L16 3L17 3L17 2ZM17 5L17 6L16 6L16 10L17 10L17 11L18 11L18 10L20 10L20 11L21 11L21 10L20 10L20 8L19 8L19 9L18 9L18 7L19 7L19 6L18 6L18 5ZM10 6L10 7L11 7L11 8L12 8L12 7L11 7L11 6ZM17 6L17 7L18 7L18 6ZM1 9L1 10L2 10L2 9ZM6 9L6 10L7 10L7 9ZM9 9L9 10L10 10L10 9ZM13 9L13 11L11 11L11 13L10 13L10 12L9 12L9 13L7 13L7 12L6 12L6 13L7 13L7 14L6 14L6 15L7 15L7 14L9 14L9 15L8 15L8 17L9 17L9 15L11 15L11 14L12 14L12 16L10 16L10 17L12 17L12 16L13 16L13 15L14 15L14 14L12 14L12 12L13 12L13 13L14 13L14 11L15 11L15 9ZM17 9L17 10L18 10L18 9ZM3 10L3 12L4 12L4 10ZM22 11L22 12L23 12L23 11ZM9 13L9 14L10 14L10 13ZM6 16L6 17L7 17L7 16ZM28 16L28 17L29 17L29 16ZM17 17L17 18L18 18L18 17ZM17 19L17 20L15 20L15 21L16 21L16 22L17 22L17 23L16 23L16 24L17 24L17 23L18 23L18 22L17 22L17 21L18 21L18 19ZM25 20L25 21L26 21L26 20ZM11 21L11 22L12 22L12 21ZM21 21L21 24L24 24L24 21ZM22 22L22 23L23 23L23 22ZM25 22L25 25L26 25L26 24L27 24L27 23L26 23L26 22ZM0 0L0 7L7 7L7 0ZM1 1L1 6L6 6L6 1ZM2 2L2 5L5 5L5 2ZM22 0L22 7L29 7L29 0ZM23 1L23 6L28 6L28 1ZM24 2L24 5L27 5L27 2ZM0 22L0 29L7 29L7 22ZM1 23L1 28L6 28L6 23ZM2 24L2 27L5 27L5 24Z" fill="#000000"/></g></g></svg>
