<?xml version="1.0" encoding="UTF-8"?>
<svg xmlns="http://www.w3.org/2000/svg" version="1.1" width="100" height="100" viewBox="0 0 100 100"><rect x="0" y="0" width="100" height="100" fill="#ffffff"/><g transform="scale(3.03)"><g transform="translate(0,0)"><path fill-rule="evenodd" d="M8 0L8 1L11 1L11 3L10 3L10 2L9 2L9 3L10 3L10 5L9 5L9 6L8 6L8 8L9 8L9 9L10 9L10 10L9 10L9 11L10 11L10 10L11 10L11 9L10 9L10 7L11 7L11 6L12 6L12 9L13 9L13 8L14 8L14 9L15 9L15 11L16 11L16 10L17 10L17 12L16 12L16 13L15 13L15 14L14 14L14 13L13 13L13 12L12 12L12 14L13 14L13 15L16 15L16 17L14 17L14 16L11 16L11 12L8 12L8 13L7 13L7 12L6 12L6 11L7 11L7 10L4 10L4 9L5 9L5 8L3 8L3 9L2 9L2 8L0 8L0 10L1 10L1 14L0 14L0 15L1 15L1 14L2 14L2 15L3 15L3 14L4 14L4 13L7 13L7 14L6 14L6 15L8 15L8 16L11 16L11 17L14 17L14 19L13 19L13 18L11 18L11 19L13 19L13 20L12 20L12 21L9 21L9 22L8 22L8 20L10 20L10 17L9 17L9 18L8 18L8 20L6 20L6 19L7 19L7 18L6 18L6 17L7 17L7 16L6 16L6 17L5 17L5 15L4 15L4 17L3 17L3 16L0 16L0 17L1 17L1 18L0 18L0 25L4 25L4 24L5 24L5 25L8 25L8 26L10 26L10 23L11 23L11 24L12 24L12 25L11 25L11 26L12 26L12 27L14 27L14 28L15 28L15 27L16 27L16 29L14 29L14 30L15 30L15 31L12 31L12 30L11 30L11 31L10 31L10 30L9 30L9 28L8 28L8 30L9 30L9 31L8 31L8 33L9 33L9 31L10 31L10 32L11 32L11 31L12 31L12 33L13 33L13 32L14 32L14 33L21 33L21 31L25 31L25 32L24 32L24 33L30 33L30 32L33 32L33 30L32 30L32 31L31 31L31 29L30 29L30 28L31 28L31 27L30 27L30 28L29 28L29 24L31 24L31 23L32 23L32 26L33 26L33 22L31 22L31 21L33 21L33 16L32 16L32 15L31 15L31 14L32 14L32 13L29 13L29 14L27 14L27 13L28 13L28 10L30 10L30 12L31 12L31 11L32 11L32 12L33 12L33 10L31 10L31 9L28 9L28 10L26 10L26 11L27 11L27 12L26 12L26 14L27 14L27 15L24 15L24 17L23 17L23 18L20 18L20 17L21 17L21 15L23 15L23 14L25 14L25 13L23 13L23 11L24 11L24 12L25 12L25 4L24 4L24 5L23 5L23 2L22 2L22 0L21 0L21 1L19 1L19 0L18 0L18 2L19 2L19 4L18 4L18 3L17 3L17 1L16 1L16 3L17 3L17 4L14 4L14 0L13 0L13 1L12 1L12 0ZM24 0L24 1L25 1L25 0ZM12 2L12 4L13 4L13 5L12 5L12 6L13 6L13 7L14 7L14 8L18 8L18 9L19 9L19 7L20 7L20 10L18 10L18 11L20 11L20 10L22 10L22 11L21 11L21 12L20 12L20 15L19 15L19 14L18 14L18 13L19 13L19 12L17 12L17 13L16 13L16 14L17 14L17 17L18 17L18 16L19 16L19 17L20 17L20 15L21 15L21 13L22 13L22 11L23 11L23 9L24 9L24 6L23 6L23 7L22 7L22 5L21 5L21 4L20 4L20 5L19 5L19 7L18 7L18 5L17 5L17 7L16 7L16 5L14 5L14 4L13 4L13 2ZM20 2L20 3L21 3L21 2ZM24 2L24 3L25 3L25 2ZM10 5L10 6L9 6L9 7L10 7L10 6L11 6L11 5ZM20 5L20 7L21 7L21 5ZM14 6L14 7L15 7L15 6ZM6 8L6 9L7 9L7 8ZM22 8L22 9L23 9L23 8ZM26 8L26 9L27 9L27 8ZM32 8L32 9L33 9L33 8ZM1 9L1 10L2 10L2 9ZM12 10L12 11L13 11L13 10ZM2 11L2 12L3 12L3 13L2 13L2 14L3 14L3 13L4 13L4 12L5 12L5 11ZM8 13L8 14L10 14L10 13ZM29 14L29 15L30 15L30 14ZM27 16L27 18L28 18L28 19L24 19L24 20L25 20L25 21L22 21L22 20L23 20L23 19L20 19L20 20L18 20L18 19L17 19L17 18L16 18L16 19L14 19L14 20L13 20L13 21L12 21L12 23L13 23L13 25L12 25L12 26L13 26L13 25L14 25L14 24L15 24L15 25L16 25L16 27L17 27L17 31L15 31L15 32L18 32L18 30L19 30L19 29L18 29L18 27L19 27L19 28L20 28L20 30L23 30L23 28L22 28L22 27L21 27L21 28L20 28L20 27L19 27L19 26L20 26L20 25L21 25L21 26L22 26L22 24L23 24L23 27L24 27L24 24L25 24L25 23L23 23L23 22L28 22L28 23L26 23L26 24L28 24L28 23L30 23L30 22L28 22L28 21L31 21L31 20L32 20L32 17L31 17L31 16L29 16L29 18L28 18L28 16ZM4 17L4 18L2 18L2 19L1 19L1 20L2 20L2 19L3 19L3 21L1 21L1 24L3 24L3 23L6 23L6 24L7 24L7 23L8 23L8 24L9 24L9 23L8 23L8 22L7 22L7 21L6 21L6 20L5 20L5 19L6 19L6 18L5 18L5 17ZM24 17L24 18L25 18L25 17ZM30 17L30 18L29 18L29 20L31 20L31 17ZM3 21L3 22L2 22L2 23L3 23L3 22L4 22L4 21ZM5 21L5 22L6 22L6 23L7 23L7 22L6 22L6 21ZM13 21L13 23L16 23L16 24L17 24L17 25L18 25L18 26L19 26L19 25L20 25L20 24L19 24L19 25L18 25L18 23L19 23L19 22L20 22L20 23L21 23L21 21L15 21L15 22L14 22L14 21ZM16 22L16 23L17 23L17 22ZM25 25L25 28L28 28L28 25ZM14 26L14 27L15 27L15 26ZM26 26L26 27L27 27L27 26ZM32 27L32 28L33 28L33 27ZM12 28L12 29L13 29L13 28ZM26 29L26 30L25 30L25 31L27 31L27 32L28 32L28 31L27 31L27 29ZM28 29L28 30L29 30L29 29ZM19 31L19 32L20 32L20 31ZM29 31L29 32L30 32L30 31ZM22 32L22 33L23 33L23 32ZM0 0L0 7L7 7L7 0ZM1 1L1 6L6 6L6 1ZM2 2L2 5L5 5L5 2ZM26 0L26 7L33 7L33 0ZM27 1L27 6L32 6L32 1ZM28 2L28 5L31 5L31 2ZM0 26L0 33L7 33L7 26ZM1 27L1 32L6 32L6 27ZM2 28L2 31L5 31L5 28Z" fill="#000000"/></g></g></svg>
