<?xml version="1.0" encoding="UTF-8"?>
<svg xmlns="http://www.w3.org/2000/svg" version="1.1" width="100" height="100" viewBox="0 0 100 100"><rect x="0" y="0" width="100" height="100" fill="#ffffff"/><g transform="scale(2.703)"><g transform="translate(0,0)"><path fill-rule="evenodd" d="M8 0L8 4L9 4L9 5L8 5L8 7L9 7L9 6L10 6L10 9L7 9L7 8L4 8L4 9L2 9L2 8L0 8L0 9L1 9L1 10L2 10L2 12L1 12L1 13L3 13L3 14L6 14L6 15L5 15L5 16L6 16L6 17L7 17L7 18L6 18L6 19L4 19L4 15L2 15L2 14L0 14L0 16L1 16L1 20L3 20L3 21L2 21L2 22L1 22L1 23L0 23L0 24L1 24L1 25L0 25L0 26L2 26L2 27L3 27L3 28L5 28L5 26L6 26L6 27L8 27L8 26L9 26L9 27L10 27L10 28L9 28L9 29L8 29L8 30L9 30L9 31L8 31L8 33L9 33L9 35L8 35L8 37L9 37L9 36L10 36L10 37L12 37L12 36L13 36L13 37L15 37L15 36L17 36L17 37L18 37L18 35L19 35L19 37L23 37L23 36L24 36L24 35L25 35L25 34L27 34L27 35L29 35L29 36L31 36L31 37L37 37L37 36L36 36L36 35L35 35L35 34L37 34L37 33L35 33L35 31L34 31L34 30L33 30L33 29L35 29L35 30L37 30L37 27L35 27L35 26L33 26L33 25L32 25L32 24L34 24L34 25L35 25L35 23L34 23L34 22L35 22L35 21L37 21L37 19L36 19L36 20L35 20L35 18L34 18L34 17L36 17L36 16L37 16L37 15L35 15L35 14L34 14L34 13L37 13L37 12L35 12L35 10L36 10L36 9L37 9L37 8L33 8L33 9L32 9L32 8L31 8L31 12L30 12L30 9L29 9L29 10L28 10L28 9L27 9L27 12L26 12L26 13L23 13L23 15L22 15L22 12L23 12L23 11L26 11L26 9L22 9L22 7L23 7L23 8L24 8L24 7L25 7L25 6L26 6L26 8L29 8L29 6L28 6L28 7L27 7L27 6L26 6L26 5L27 5L27 4L28 4L28 5L29 5L29 4L28 4L28 2L29 2L29 0L27 0L27 1L26 1L26 0L22 0L22 1L21 1L21 0L20 0L20 1L18 1L18 2L17 2L17 0L14 0L14 1L11 1L11 2L12 2L12 5L13 5L13 6L12 6L12 7L11 7L11 3L10 3L10 2L9 2L9 0ZM14 1L14 2L13 2L13 3L15 3L15 2L16 2L16 1ZM22 1L22 2L24 2L24 3L26 3L26 1L25 1L25 2L24 2L24 1ZM27 1L27 2L28 2L28 1ZM18 2L18 3L17 3L17 5L15 5L15 8L14 8L14 6L13 6L13 7L12 7L12 8L11 8L11 9L10 9L10 10L8 10L8 11L6 11L6 10L7 10L7 9L6 9L6 10L5 10L5 9L4 9L4 10L5 10L5 11L6 11L6 12L4 12L4 11L3 11L3 12L4 12L4 13L6 13L6 14L7 14L7 15L6 15L6 16L7 16L7 15L8 15L8 14L9 14L9 17L8 17L8 18L9 18L9 17L10 17L10 18L11 18L11 20L12 20L12 21L11 21L11 22L10 22L10 20L9 20L9 22L7 22L7 21L8 21L8 19L6 19L6 20L5 20L5 21L4 21L4 23L1 23L1 24L2 24L2 26L5 26L5 25L6 25L6 26L7 26L7 25L6 25L6 24L7 24L7 23L9 23L9 22L10 22L10 24L9 24L9 26L10 26L10 24L11 24L11 28L12 28L12 29L9 29L9 30L10 30L10 31L9 31L9 33L10 33L10 32L11 32L11 34L10 34L10 36L12 36L12 35L13 35L13 36L14 36L14 35L15 35L15 34L13 34L13 33L12 33L12 32L13 32L13 31L12 31L12 32L11 32L11 30L12 30L12 29L13 29L13 30L15 30L15 29L16 29L16 28L17 28L17 26L18 26L18 29L17 29L17 31L16 31L16 32L15 32L15 31L14 31L14 33L16 33L16 32L17 32L17 31L19 31L19 32L18 32L18 33L17 33L17 34L16 34L16 35L17 35L17 34L19 34L19 35L20 35L20 36L21 36L21 35L20 35L20 34L21 34L21 33L20 33L20 31L21 31L21 29L19 29L19 28L20 28L20 25L19 25L19 26L18 26L18 25L17 25L17 26L16 26L16 28L15 28L15 29L13 29L13 28L14 28L14 27L15 27L15 26L13 26L13 25L12 25L12 24L13 24L13 23L12 23L12 24L11 24L11 22L12 22L12 21L13 21L13 22L14 22L14 21L13 21L13 20L15 20L15 21L16 21L16 19L17 19L17 18L18 18L18 20L19 20L19 21L20 21L20 22L19 22L19 23L18 23L18 24L21 24L21 23L23 23L23 22L22 22L22 20L21 20L21 19L20 19L20 18L23 18L23 17L25 17L25 18L26 18L26 17L28 17L28 18L30 18L30 20L29 20L29 21L28 21L28 20L27 20L27 19L24 19L24 21L25 21L25 22L24 22L24 24L23 24L23 25L21 25L21 26L22 26L22 28L23 28L23 29L22 29L22 30L23 30L23 29L25 29L25 30L24 30L24 31L23 31L23 33L22 33L22 34L23 34L23 33L26 33L26 32L27 32L27 34L29 34L29 35L30 35L30 33L28 33L28 32L27 32L27 31L28 31L28 30L27 30L27 29L28 29L28 28L27 28L27 29L26 29L26 27L27 27L27 26L26 26L26 25L27 25L27 24L28 24L28 23L25 23L25 22L26 22L26 21L28 21L28 22L29 22L29 21L30 21L30 24L29 24L29 25L28 25L28 26L29 26L29 25L30 25L30 28L31 28L31 27L32 27L32 28L33 28L33 26L31 26L31 25L30 25L30 24L31 24L31 21L33 21L33 22L32 22L32 23L33 23L33 22L34 22L34 21L33 21L33 19L34 19L34 18L31 18L31 17L34 17L34 15L33 15L33 14L32 14L32 15L31 15L31 13L30 13L30 12L29 12L29 11L28 11L28 14L29 14L29 13L30 13L30 15L29 15L29 17L28 17L28 16L27 16L27 14L24 14L24 16L22 16L22 17L20 17L20 18L19 18L19 17L16 17L16 19L15 19L15 18L13 18L13 17L14 17L14 14L13 14L13 15L12 15L12 16L11 16L11 14L12 14L12 13L16 13L16 14L17 14L17 12L15 12L15 11L14 11L14 10L13 10L13 9L15 9L15 10L16 10L16 8L17 8L17 10L18 10L18 9L19 9L19 11L18 11L18 12L19 12L19 13L18 13L18 15L19 15L19 16L20 16L20 15L21 15L21 14L20 14L20 13L21 13L21 10L22 10L22 9L21 9L21 10L20 10L20 9L19 9L19 8L21 8L21 7L22 7L22 6L23 6L23 7L24 7L24 5L21 5L21 7L20 7L20 6L19 6L19 7L18 7L18 5L20 5L20 3L21 3L21 4L22 4L22 3L21 3L21 2L20 2L20 3L19 3L19 2ZM13 4L13 5L14 5L14 4ZM16 6L16 7L17 7L17 8L18 8L18 7L17 7L17 6ZM12 8L12 9L13 9L13 8ZM34 9L34 10L35 10L35 9ZM10 10L10 11L8 11L8 12L6 12L6 13L9 13L9 14L11 14L11 13L12 13L12 12L13 12L13 11L12 11L12 12L10 12L10 11L11 11L11 10ZM32 10L32 11L33 11L33 12L32 12L32 13L33 13L33 12L34 12L34 11L33 11L33 10ZM19 11L19 12L20 12L20 11ZM9 12L9 13L10 13L10 12ZM1 15L1 16L2 16L2 15ZM15 15L15 16L16 16L16 15ZM12 16L12 17L13 17L13 16ZM25 16L25 17L26 17L26 16ZM30 16L30 17L31 17L31 16ZM2 18L2 19L3 19L3 20L4 20L4 19L3 19L3 18ZM12 19L12 20L13 20L13 19ZM6 20L6 21L7 21L7 20ZM20 20L20 21L21 21L21 20ZM25 20L25 21L26 21L26 20ZM30 20L30 21L31 21L31 20ZM5 22L5 23L4 23L4 24L5 24L5 23L7 23L7 22ZM14 23L14 25L16 25L16 24L17 24L17 23L16 23L16 24L15 24L15 23ZM25 24L25 25L23 25L23 28L24 28L24 26L25 26L25 25L26 25L26 24ZM12 27L12 28L13 28L13 27ZM0 28L0 29L2 29L2 28ZM6 28L6 29L7 29L7 28ZM29 29L29 32L32 32L32 29ZM25 30L25 31L26 31L26 30ZM30 30L30 31L31 31L31 30ZM36 31L36 32L37 32L37 31ZM31 33L31 36L32 36L32 35L33 35L33 34L35 34L35 33ZM22 35L22 36L23 36L23 35ZM26 36L26 37L27 37L27 36ZM0 0L0 7L7 7L7 0ZM1 1L1 6L6 6L6 1ZM2 2L2 5L5 5L5 2ZM30 0L30 7L37 7L37 0ZM31 1L31 6L36 6L36 1ZM32 2L32 5L35 5L35 2ZM0 30L0 37L7 37L7 30ZM1 31L1 36L6 36L6 31ZM2 32L2 35L5 35L5 32Z" fill="#000000"/></g></g></svg>
