<?xml version="1.0" encoding="UTF-8"?>
<svg xmlns="http://www.w3.org/2000/svg" version="1.1" width="100" height="100" viewBox="0 0 100 100"><rect x="0" y="0" width="100" height="100" fill="#ffffff"/><g transform="scale(3.03)"><g transform="translate(0,0)"><path fill-rule="evenodd" d="M8 0L8 4L9 4L9 5L8 5L8 7L9 7L9 6L10 6L10 9L11 9L11 8L12 8L12 9L13 9L13 10L14 10L14 11L15 11L15 14L14 14L14 13L13 13L13 11L12 11L12 12L11 12L11 13L10 13L10 14L9 14L9 12L10 12L10 11L11 11L11 10L9 10L9 9L7 9L7 8L4 8L4 11L3 11L3 10L2 10L2 8L0 8L0 9L1 9L1 10L2 10L2 11L0 11L0 14L5 14L5 13L1 13L1 12L4 12L4 11L5 11L5 12L6 12L6 13L7 13L7 14L6 14L6 15L7 15L7 14L8 14L8 15L9 15L9 18L10 18L10 17L11 17L11 20L10 20L10 19L7 19L7 18L8 18L8 16L6 16L6 17L5 17L5 16L1 16L1 17L5 17L5 18L4 18L4 19L2 19L2 18L0 18L0 19L2 19L2 23L3 23L3 24L0 24L0 25L5 25L5 23L7 23L7 24L6 24L6 25L8 25L8 26L9 26L9 27L8 27L8 29L9 29L9 27L10 27L10 26L11 26L11 29L10 29L10 30L11 30L11 31L10 31L10 32L9 32L9 31L8 31L8 33L11 33L11 32L12 32L12 33L13 33L13 32L12 32L12 31L15 31L15 32L17 32L17 33L20 33L20 31L19 31L19 32L18 32L18 31L17 31L17 30L18 30L18 29L19 29L19 28L18 28L18 27L19 27L19 25L20 25L20 27L21 27L21 29L20 29L20 30L21 30L21 33L22 33L22 32L24 32L24 33L26 33L26 32L25 32L25 31L27 31L27 32L28 32L28 31L29 31L29 33L30 33L30 30L31 30L31 31L32 31L32 30L33 30L33 29L32 29L32 28L31 28L31 29L30 29L30 30L29 30L29 28L30 28L30 27L32 27L32 26L33 26L33 23L32 23L32 17L33 17L33 15L32 15L32 13L30 13L30 12L28 12L28 13L29 13L29 14L27 14L27 12L26 12L26 14L25 14L25 13L24 13L24 12L23 12L23 11L24 11L24 10L26 10L26 9L25 9L25 8L24 8L24 7L25 7L25 3L24 3L24 2L22 2L22 1L25 1L25 0L22 0L22 1L19 1L19 0L15 0L15 1L16 1L16 3L13 3L13 2L14 2L14 0L13 0L13 1L11 1L11 2L12 2L12 5L13 5L13 6L12 6L12 7L11 7L11 3L10 3L10 2L9 2L9 0ZM17 1L17 2L18 2L18 1ZM19 2L19 3L20 3L20 4L19 4L19 5L20 5L20 6L19 6L19 8L18 8L18 9L19 9L19 11L18 11L18 13L17 13L17 11L16 11L16 15L15 15L15 16L14 16L14 14L13 14L13 17L12 17L12 16L11 16L11 14L12 14L12 13L11 13L11 14L10 14L10 16L11 16L11 17L12 17L12 19L13 19L13 21L12 21L12 20L11 20L11 21L12 21L12 22L14 22L14 23L12 23L12 24L13 24L13 25L12 25L12 27L13 27L13 28L14 28L14 30L15 30L15 29L16 29L16 30L17 30L17 29L16 29L16 28L17 28L17 27L15 27L15 26L13 26L13 25L14 25L14 24L15 24L15 25L16 25L16 26L18 26L18 25L19 25L19 24L20 24L20 25L21 25L21 26L22 26L22 25L23 25L23 26L24 26L24 25L23 25L23 24L24 24L24 23L25 23L25 21L26 21L26 24L27 24L27 22L29 22L29 23L30 23L30 25L29 25L29 26L32 26L32 23L31 23L31 22L29 22L29 21L31 21L31 18L30 18L30 19L29 19L29 17L26 17L26 16L28 16L28 15L27 15L27 14L26 14L26 16L25 16L25 15L24 15L24 16L25 16L25 17L23 17L23 15L22 15L22 17L21 17L21 18L20 18L20 17L19 17L19 18L18 18L18 17L16 17L16 16L17 16L17 14L18 14L18 13L19 13L19 11L21 11L21 10L22 10L22 9L24 9L24 8L22 8L22 9L19 9L19 8L20 8L20 6L21 6L21 7L22 7L22 6L23 6L23 7L24 7L24 5L22 5L22 3L21 3L21 2ZM16 3L16 4L15 4L15 7L16 7L16 6L17 6L17 7L18 7L18 6L17 6L17 5L18 5L18 3ZM16 4L16 5L17 5L17 4ZM13 6L13 7L12 7L12 8L13 8L13 9L14 9L14 10L15 10L15 9L16 9L16 10L17 10L17 8L14 8L14 6ZM27 8L27 9L28 9L28 8ZM29 8L29 10L27 10L27 11L29 11L29 10L31 10L31 11L32 11L32 12L33 12L33 11L32 11L32 9L33 9L33 8ZM5 9L5 10L7 10L7 11L6 11L6 12L7 12L7 13L8 13L8 12L9 12L9 10L7 10L7 9ZM7 11L7 12L8 12L8 11ZM20 12L20 14L19 14L19 16L21 16L21 12ZM22 12L22 13L23 13L23 12ZM30 14L30 15L29 15L29 16L30 16L30 17L32 17L32 16L31 16L31 14ZM6 17L6 18L7 18L7 17ZM13 17L13 19L14 19L14 21L15 21L15 23L16 23L16 21L17 21L17 24L16 24L16 25L17 25L17 24L19 24L19 23L18 23L18 22L19 22L19 21L17 21L17 20L18 20L18 18L16 18L16 17L15 17L15 19L14 19L14 17ZM22 17L22 18L21 18L21 19L20 19L20 22L21 22L21 21L22 21L22 23L21 23L21 25L22 25L22 23L24 23L24 22L23 22L23 21L25 21L25 20L26 20L26 21L29 21L29 19L28 19L28 18L27 18L27 19L24 19L24 18L23 18L23 17ZM4 19L4 20L3 20L3 23L5 23L5 22L4 22L4 20L5 20L5 21L6 21L6 22L7 22L7 21L6 21L6 20L7 20L7 19ZM15 19L15 21L16 21L16 20L17 20L17 19ZM23 19L23 20L22 20L22 21L23 21L23 20L24 20L24 19ZM0 20L0 22L1 22L1 20ZM8 20L8 22L9 22L9 20ZM10 22L10 23L11 23L11 22ZM8 23L8 25L9 25L9 23ZM10 24L10 25L11 25L11 24ZM25 25L25 28L28 28L28 25ZM26 26L26 27L27 27L27 26ZM23 27L23 28L22 28L22 29L21 29L21 30L22 30L22 29L23 29L23 30L24 30L24 31L25 31L25 30L26 30L26 29L25 29L25 30L24 30L24 27ZM12 29L12 30L13 30L13 29ZM32 32L32 33L33 33L33 32ZM0 0L0 7L7 7L7 0ZM1 1L1 6L6 6L6 1ZM2 2L2 5L5 5L5 2ZM26 0L26 7L33 7L33 0ZM27 1L27 6L32 6L32 1ZM28 2L28 5L31 5L31 2ZM0 26L0 33L7 33L7 26ZM1 27L1 32L6 32L6 27ZM2 28L2 31L5 31L5 28Z" fill="#000000"/></g></g></svg>
