<?xml version="1.0" encoding="UTF-8"?>
<svg xmlns="http://www.w3.org/2000/svg" version="1.1" width="100" height="100" viewBox="0 0 100 100"><rect x="0" y="0" width="100" height="100" fill="#ffffff"/><g transform="scale(3.03)"><g transform="translate(0,0)"><path fill-rule="evenodd" d="M8 0L8 4L10 4L10 3L11 3L11 4L12 4L12 2L11 2L11 0ZM12 0L12 1L13 1L13 2L15 2L15 3L14 3L14 4L13 4L13 5L11 5L11 6L10 6L10 7L9 7L9 5L8 5L8 7L9 7L9 8L10 8L10 7L11 7L11 6L12 6L12 8L11 8L11 9L9 9L9 10L11 10L11 11L10 11L10 13L8 13L8 12L9 12L9 11L8 11L8 12L6 12L6 11L7 11L7 10L8 10L8 9L7 9L7 8L4 8L4 11L3 11L3 12L2 12L2 13L1 13L1 15L2 15L2 13L3 13L3 14L4 14L4 12L5 12L5 13L8 13L8 14L10 14L10 15L11 15L11 16L9 16L9 17L10 17L10 18L8 18L8 19L7 19L7 18L6 18L6 19L7 19L7 20L6 20L6 21L7 21L7 22L5 22L5 18L4 18L4 19L1 19L1 16L0 16L0 19L1 19L1 20L4 20L4 22L2 22L2 21L0 21L0 22L2 22L2 24L0 24L0 25L2 25L2 24L3 24L3 25L4 25L4 24L5 24L5 25L7 25L7 24L8 24L8 22L9 22L9 21L8 21L8 19L11 19L11 20L10 20L10 21L11 21L11 22L10 22L10 24L9 24L9 25L8 25L8 26L9 26L9 25L10 25L10 26L11 26L11 27L10 27L10 30L9 30L9 31L8 31L8 33L11 33L11 32L12 32L12 33L13 33L13 32L12 32L12 30L11 30L11 27L12 27L12 28L13 28L13 27L14 27L14 29L15 29L15 32L14 32L14 33L15 33L15 32L17 32L17 33L20 33L20 31L19 31L19 32L18 32L18 31L17 31L17 30L18 30L18 29L19 29L19 28L18 28L18 27L19 27L19 25L20 25L20 27L21 27L21 29L20 29L20 30L21 30L21 33L22 33L22 32L24 32L24 33L26 33L26 32L25 32L25 31L27 31L27 32L28 32L28 31L29 31L29 33L30 33L30 30L31 30L31 31L32 31L32 30L33 30L33 29L32 29L32 26L33 26L33 23L32 23L32 17L33 17L33 15L32 15L32 13L30 13L30 12L28 12L28 13L29 13L29 14L27 14L27 12L26 12L26 14L25 14L25 13L24 13L24 12L23 12L23 11L24 11L24 10L26 10L26 9L25 9L25 8L24 8L24 7L25 7L25 3L24 3L24 2L22 2L22 1L25 1L25 0L22 0L22 1L19 1L19 0L17 0L17 1L18 1L18 2L17 2L17 3L16 3L16 2L15 2L15 1L16 1L16 0ZM9 2L9 3L10 3L10 2ZM19 2L19 3L20 3L20 4L19 4L19 5L20 5L20 6L19 6L19 8L18 8L18 9L19 9L19 11L18 11L18 13L16 13L16 14L18 14L18 13L19 13L19 11L21 11L21 10L22 10L22 9L24 9L24 8L22 8L22 9L19 9L19 8L20 8L20 6L21 6L21 7L22 7L22 6L23 6L23 7L24 7L24 5L22 5L22 3L21 3L21 2ZM15 3L15 4L14 4L14 5L13 5L13 9L14 9L14 10L12 10L12 9L11 9L11 10L12 10L12 11L13 11L13 13L12 13L12 12L11 12L11 13L10 13L10 14L11 14L11 13L12 13L12 14L13 14L13 15L12 15L12 16L13 16L13 17L12 17L12 19L13 19L13 21L12 21L12 22L13 22L13 23L12 23L12 24L11 24L11 25L12 25L12 27L13 27L13 25L14 25L14 27L15 27L15 29L16 29L16 30L17 30L17 29L16 29L16 27L15 27L15 25L16 25L16 26L18 26L18 25L19 25L19 24L20 24L20 25L21 25L21 26L22 26L22 25L23 25L23 26L24 26L24 25L23 25L23 24L24 24L24 23L25 23L25 21L26 21L26 24L27 24L27 22L29 22L29 23L30 23L30 25L29 25L29 26L32 26L32 23L31 23L31 22L29 22L29 21L31 21L31 18L30 18L30 19L29 19L29 17L26 17L26 16L28 16L28 15L27 15L27 14L26 14L26 16L25 16L25 15L24 15L24 16L25 16L25 17L23 17L23 15L22 15L22 17L21 17L21 18L20 18L20 17L19 17L19 18L18 18L18 17L17 17L17 15L16 15L16 16L14 16L14 15L15 15L15 14L13 14L13 13L15 13L15 11L14 11L14 10L15 10L15 9L16 9L16 11L17 11L17 9L16 9L16 8L14 8L14 5L15 5L15 7L16 7L16 6L17 6L17 7L18 7L18 6L17 6L17 5L18 5L18 3L17 3L17 4L16 4L16 3ZM15 4L15 5L16 5L16 4ZM0 8L0 10L1 10L1 11L2 11L2 10L3 10L3 9L2 9L2 8ZM27 8L27 9L28 9L28 8ZM29 8L29 10L27 10L27 11L29 11L29 10L31 10L31 11L32 11L32 12L33 12L33 11L32 11L32 9L33 9L33 8ZM1 9L1 10L2 10L2 9ZM5 9L5 11L6 11L6 10L7 10L7 9ZM20 12L20 14L19 14L19 16L21 16L21 12ZM22 12L22 13L23 13L23 12ZM6 14L6 15L3 15L3 16L2 16L2 17L8 17L8 15L7 15L7 14ZM30 14L30 15L29 15L29 16L30 16L30 17L32 17L32 16L31 16L31 14ZM6 15L6 16L7 16L7 15ZM13 17L13 18L14 18L14 19L15 19L15 20L16 20L16 21L15 21L15 22L14 22L14 21L13 21L13 22L14 22L14 24L16 24L16 25L17 25L17 24L19 24L19 23L18 23L18 22L19 22L19 21L17 21L17 20L18 20L18 18L17 18L17 17L16 17L16 18L14 18L14 17ZM22 17L22 18L21 18L21 19L20 19L20 22L21 22L21 21L22 21L22 23L21 23L21 25L22 25L22 23L24 23L24 22L23 22L23 21L25 21L25 20L26 20L26 21L29 21L29 19L28 19L28 18L27 18L27 19L24 19L24 18L23 18L23 17ZM23 19L23 20L22 20L22 21L23 21L23 20L24 20L24 19ZM16 21L16 22L17 22L17 21ZM4 22L4 23L5 23L5 24L7 24L7 23L5 23L5 22ZM12 24L12 25L13 25L13 24ZM25 25L25 28L28 28L28 25ZM26 26L26 27L27 27L27 26ZM8 27L8 29L9 29L9 27ZM23 27L23 28L22 28L22 29L21 29L21 30L22 30L22 29L23 29L23 30L24 30L24 31L25 31L25 30L26 30L26 29L25 29L25 30L24 30L24 27ZM30 27L30 28L29 28L29 30L30 30L30 29L31 29L31 27ZM13 30L13 31L14 31L14 30ZM9 31L9 32L10 32L10 31ZM32 32L32 33L33 33L33 32ZM0 0L0 7L7 7L7 0ZM1 1L1 6L6 6L6 1ZM2 2L2 5L5 5L5 2ZM26 0L26 7L33 7L33 0ZM27 1L27 6L32 6L32 1ZM28 2L28 5L31 5L31 2ZM0 26L0 33L7 33L7 26ZM1 27L1 32L6 32L6 27ZM2 28L2 31L5 31L5 28Z" fill="#000000"/></g></g></svg>
